<svg width="1131" height="1016" viewBox="0 0 1131 1016" fill="none" xmlns="http://www.w3.org/2000/svg">
<path fill-rule="evenodd" clip-rule="evenodd" d="M411.717 671.305C639.103 671.305 823.435 521.028 823.435 335.652C823.435 150.277 639.103 0 411.717 0C184.332 0 0 150.277 0 335.652C0 419.235 37.4735 495.681 99.4707 554.436L35.7135 686.668C35.0923 687.956 36.4551 689.301 37.7347 688.662L184.286 615.489C249.448 650.759 327.64 671.305 411.717 671.305Z" fill="#008CFC" fill-opacity="0.6"/>
<path fill-rule="evenodd" clip-rule="evenodd" d="M796.872 816.211C612.83 816.211 463.635 694.58 463.635 544.54C463.635 394.5 612.83 272.868 796.872 272.868C980.914 272.868 1130.11 394.5 1130.11 544.54C1130.11 612.19 1099.78 674.065 1049.6 721.62L1100.84 827.892C1101.46 829.181 1100.1 830.525 1098.82 829.886L980.952 771.035C928.21 799.582 864.923 816.211 796.872 816.211Z" fill="#FBFF4F" fill-opacity="0.8"/>
<ellipse cx="563.175" cy="966.232" rx="469.313" ry="49.6919" fill="#2D2D2D" fill-opacity="0.2"/>
</svg>
